<svg width="1000" height="1000" viewBox="0 0 1000 1000" fill="none" xmlns="http://www.w3.org/2000/svg">
<path d="M0 0H1000V1000H0V0Z" fill="black"/>
<path d="M324.859 581.235L272.578 520.355L87 285.573H194.157L375.74 497.016L643.458 87H810.733L468.731 605.314L633.217 796.84L740.199 912.826H609.62C609.62 912.826 551.185 844.78 513.742 801.179C495.02 779.379 465.803 745.356 465.803 745.356L417.863 689.533L264.701 912.826H97.4262L324.859 581.235ZM392.738 660.274L743.317 124.373H667.198L165.268 877.152H241.387L392.738 660.287V660.274Z" fill="white"/>
<path d="M630.903 793.559C623.796 799.725 615.654 803.595 606.477 805.168C597.3 806.742 588.279 806.103 579.416 803.252C570.552 800.401 563.037 795.423 556.869 788.317L488.078 709.055C481.911 701.949 478.04 693.808 476.466 684.633C474.893 675.458 475.532 666.44 478.383 657.578C481.234 648.716 486.214 641.202 493.321 635.036L574.786 564.361C582.076 558.037 590.309 554.088 599.486 552.515C608.663 550.941 617.592 551.659 626.274 554.668C635.137 557.519 642.653 562.497 648.82 569.604L717.611 648.865C723.779 655.971 727.649 664.112 729.223 673.287C730.979 682.304 730.431 691.243 727.58 700.105C724.729 708.967 719.658 716.56 712.368 722.884L630.903 793.559ZM596.797 749.844L673.888 682.964L608.892 608.076L531.802 674.956L596.797 749.844Z" fill="white"/>
<path d="M813.507 635.142C806.399 641.308 798.257 645.178 789.08 646.751C779.903 648.324 770.883 647.686 762.019 644.835C753.155 641.984 745.64 637.006 739.472 629.9L670.681 550.638C664.514 543.532 660.643 535.391 659.07 526.216C657.496 517.041 658.135 508.022 660.986 499.161C663.837 490.299 668.817 482.785 675.925 476.619L757.389 405.944C764.679 399.62 772.913 395.671 782.089 394.098C791.266 392.524 800.196 393.242 808.877 396.251C817.74 399.102 825.256 404.08 831.424 411.186L900.214 490.448C906.382 497.554 910.253 505.695 911.826 514.87C913.582 523.887 913.034 532.826 910.183 541.688C907.332 550.55 902.261 558.143 894.971 564.467L813.507 635.142ZM779.4 591.427L856.491 524.547L791.495 449.659L714.405 516.539L779.4 591.427Z" fill="white"/>
</svg>
