<svg width="964" height="846" viewBox="0 0 964 846" fill="none" xmlns="http://www.w3.org/2000/svg">
<path d="M266.486 457.221L21.4525 171.828H79.5178L292.281 419.63L561.424 0H757.423L401.24 546.55L658.212 845.828H600.144L375.46 584.14L195.998 845.828H-0.000183105L266.501 457.221H266.486ZM346.02 549.851L678.431 43.7996H589.242L79.4903 804.021H168.68L346.02 549.866V549.851Z" fill="white"/>
<path d="M593.376 747.525C585.869 753.95 577.374 758.069 567.89 759.882C558.438 761.272 549.15 760.552 540.026 757.721C530.935 754.467 523.176 749.087 516.751 741.581L418.031 626.258C411.605 618.752 407.584 610.37 405.966 601.113C404.381 591.434 405.101 582.146 408.127 573.249C411.186 563.931 416.469 556.058 423.975 549.633L542.71 447.992C550.444 441.372 559.036 437.367 568.488 435.976C577.972 434.164 587.26 434.884 596.352 438.138C605.476 440.969 613.251 446.138 619.676 453.644L718.396 568.968C724.821 576.474 728.827 585.066 730.412 594.746C732.03 604.002 731.309 613.29 728.25 622.609C725.224 631.506 719.845 639.264 712.111 645.884L593.376 747.525ZM569.426 719.547L688.161 617.907C691.8 614.791 693.8 610.912 694.161 606.268C694.554 601.202 693.192 596.849 690.077 593.209L591.357 477.886C588.242 474.247 584.248 472.344 579.377 472.179C574.538 471.591 570.299 472.855 566.66 475.97L447.925 577.611C444.285 580.726 442.269 584.817 441.876 589.883C441.516 594.527 442.893 598.669 446.009 602.308L544.729 717.631C547.844 721.271 551.821 723.384 556.66 723.972C561.531 724.137 565.786 722.662 569.426 719.547Z" fill="white"/>
<path d="M822.948 551.005C815.442 557.431 806.946 561.55 797.462 563.362C788.01 564.753 778.723 564.032 769.598 561.201C760.507 557.947 752.749 552.567 746.323 545.061L647.603 429.738C641.178 422.232 637.156 413.85 635.538 404.593C633.953 394.914 634.674 385.626 637.7 376.73C640.758 367.411 646.041 359.539 653.547 353.113L772.282 251.473C780.016 244.852 788.609 240.847 798.06 239.457C807.545 237.644 816.833 238.364 825.924 241.618C835.048 244.449 842.823 249.618 849.248 257.124L947.968 372.448C954.394 379.954 958.399 388.547 959.984 398.226C961.602 407.483 960.882 416.77 957.823 426.089C954.797 434.986 949.417 442.744 941.683 449.365L822.948 551.005ZM798.998 523.027L917.733 421.387C921.373 418.271 923.373 414.392 923.733 409.748C924.126 404.682 922.765 400.329 919.649 396.689L820.929 281.366C817.814 277.727 813.821 275.824 808.949 275.659C804.111 275.071 799.872 276.335 796.232 279.45L677.497 381.091C673.858 384.206 671.841 388.297 671.448 393.363C671.088 398.007 672.466 402.149 675.581 405.788L774.301 521.111C777.416 524.751 781.393 526.864 786.232 527.452C791.103 527.618 795.359 526.143 798.998 523.027Z" fill="white"/>
</svg>
