<svg width="1249" height="834" viewBox="0 0 1249 834" fill="none" xmlns="http://www.w3.org/2000/svg">
<path d="M273.059 437.257L299.49 398.928L558.308 -8.66608e-05H759.141L411.136 528.339L384.72 566.667L200.833 833.492H5.28038e-06L273.074 437.257H273.059ZM354.554 531.705L678.201 44.6591H586.811L81.4511 790.864H172.84L354.554 531.72V531.705Z" fill="white"/>
<path d="M243.823 448.164L3.33021e-05 164.806H57.7784L269.49 410.841L377.911 536.856L633.613 834H575.832L352.258 574.178L243.838 448.164H243.823Z" fill="white"/>
<path d="M575.778 833.637V398.22H823.052C835.953 398.22 847.6 401.445 857.993 407.896C868.744 414.346 877.166 422.768 883.258 433.161C889.709 443.553 892.934 455.2 892.934 468.101V640.118C892.934 653.019 889.709 664.666 883.258 675.059C877.166 685.452 868.744 693.873 857.993 700.324C847.6 706.775 835.953 710 823.052 710H633.834V833.637H575.778ZM647.273 651.944H821.44C825.023 651.944 828.069 650.69 830.578 648.181C833.445 645.314 834.878 642.089 834.878 638.505V469.714C834.878 466.13 833.445 463.084 830.578 460.576C828.069 457.709 825.023 456.275 821.44 456.275H647.273C643.689 456.275 640.464 457.709 637.597 460.576C635.088 463.084 633.834 466.13 633.834 469.714V638.505C633.834 642.089 635.088 645.314 637.597 648.181C640.464 650.69 643.689 651.944 647.273 651.944Z" fill="white"/>
<path d="M1001.02 710C988.114 710 976.467 706.775 966.075 700.324C955.682 693.873 947.26 685.452 940.81 675.059C934.359 664.666 931.134 653.019 931.134 640.118V468.101C931.134 455.2 934.359 443.553 940.81 433.161C947.26 422.768 955.682 414.346 966.075 407.896C976.467 401.445 988.114 398.22 1001.02 398.22H1178.41C1191.31 398.22 1202.96 401.445 1213.35 407.896C1224.1 413.988 1232.52 422.41 1238.61 433.161C1245.06 443.912 1248.29 455.559 1248.29 468.101V640.118C1248.29 653.019 1245.06 664.666 1238.61 675.059C1232.52 685.452 1224.1 693.873 1213.35 700.324C1202.96 706.775 1191.31 710 1178.41 710H1001.02ZM1002.63 651.944H1176.79C1180.38 651.944 1183.42 650.69 1185.93 648.181C1188.44 645.314 1189.7 642.089 1189.7 638.505V469.714C1189.7 466.13 1188.44 463.084 1185.93 460.576C1183.42 457.709 1180.38 456.275 1176.79 456.275H1002.63C999.044 456.275 995.819 457.709 992.952 460.576C990.444 463.084 989.189 466.13 989.189 469.714V638.505C989.189 642.089 990.444 645.314 992.952 648.181C995.819 650.69 999.044 651.944 1002.63 651.944Z" fill="white"/>
</svg>
