<svg width="968" height="968" viewBox="0 0 968 968" fill="none" xmlns="http://www.w3.org/2000/svg">
<path d="M278.758 579.219L217.488 507.871L-0.000293173 232.717H125.582L338.388 480.518L652.139 0H848.177L447.369 607.438L575.881 757.077L640.137 831.896L765.515 967.826H612.484C612.484 967.826 544 888.079 500.119 836.982C478.178 811.433 443.937 771.559 443.937 771.559L387.754 706.137L208.256 967.826H12.2187L278.758 579.219ZM358.308 671.848L769.169 43.7996H679.962L91.7252 926.018H180.933L358.308 671.863V671.848Z" fill="white"/>
<path d="M637.426 828.051C629.096 835.278 619.554 839.813 608.799 841.657C598.044 843.501 587.473 842.752 577.085 839.411C566.698 836.07 557.89 830.236 550.662 821.907L470.042 729.017C462.814 720.689 458.278 711.148 456.434 700.396C454.59 689.643 455.338 679.074 458.68 668.688C462.022 658.303 467.857 649.496 476.187 642.27L571.659 559.443C580.203 552.031 589.852 547.404 600.607 545.56C611.362 543.716 621.826 544.557 632 548.083C642.388 551.424 651.196 557.259 658.424 565.587L739.043 658.477C746.271 666.805 750.807 676.346 752.652 687.099C754.709 697.666 754.068 708.143 750.726 718.528C747.384 728.914 741.442 737.812 732.898 745.224L637.426 828.051ZM597.455 776.82L687.802 698.44L611.63 610.674L521.284 689.054L597.455 776.82Z" fill="white"/>
<path d="M851.428 642.394C843.098 649.621 833.555 654.156 822.801 656C812.046 657.844 801.474 657.095 791.087 653.754C780.699 650.413 771.891 644.579 764.663 636.251L684.044 543.36C676.816 535.032 672.28 525.492 670.435 514.739C668.591 503.986 669.34 493.417 672.682 483.031C676.023 472.646 681.859 463.84 690.189 456.613L785.661 373.786C794.204 366.375 803.853 361.747 814.608 359.903C825.363 358.059 835.828 358.9 846.002 362.426C856.389 365.767 865.197 371.602 872.425 379.93L953.045 472.82C960.273 481.149 964.809 490.689 966.653 501.442C968.711 512.009 968.069 522.486 964.727 532.871C961.386 543.257 955.443 552.156 946.9 559.567L851.428 642.394ZM811.457 591.163L901.803 512.783L825.632 425.018L735.285 503.397L811.457 591.163Z" fill="white"/>
</svg>
